<svg width="93" height="18" fill="none" xmlns="http://www.w3.org/2000/svg">
  <g clip-path="url(#a)" fill="#fff"><path d="M17.843 7.866s.432-4.778.473-5.247C18.382 1.866 17.763.5 16.272.5h-4.4l-2.65.002H3.957c-1.49 0-2.214.99-2.308 1.938C1.594 3 .576 14.552.51 15.217c-.105 1.069.65 2.283 2.022 2.283h12.243c1.626 0 2.256-.842 2.396-2.14.082-.778.485-5.48.485-5.48h-7.402l-.319 3.635H8.061l.808-9.024h1.872l-.298 3.377h7.402l-.002-.002ZM29.265 1.96c-.265.743-2.417 7.347-2.417 7.347l.958-8.805h-7.398L18.858 17.5h5.577c1.401 0 1.88-.778 2.111-1.4.279-.746 2.332-6.3 2.332-6.3l-.755 7.7h7.403L37.05.5h-5.81c-1.282 0-1.786.928-1.975 1.458M66.757.502l-.693 7.751h-1.876l.693-7.751H57.48s-.71 8.206-.785 9c-.09.946.458 2.288 2.098 2.288h6.956l-.154 1.725h-9.258l-.356 3.987H70.71c.997 0 1.962-.639 2.092-2.001.084-.875 1.359-14.997 1.359-14.997h-7.402l-.002-.002ZM82.69 8.707l.377-4.216h1.854l-.377 4.216h-1.855ZM86.071.502h-10.05L74.502 17.5h7.402l.47-5.26h2.65-.493 5.033c1.271 0 2.118-.635 2.254-2.095.052-.564.638-7.007.677-7.577.09-1.256-.932-2.068-2.2-2.068h-4.22l-.004.002ZM47.025 13.965h-1.888l.375-4.218h1.89l-.377 4.218Zm-1.197-7.753.153-1.723h9.27L55.61.5H38.936l-1.518 16.998h14.77c.895 0 1.956-.545 2.088-1.967.1-1.065.555-6.12.638-7.036.111-1.225-.684-2.283-2.242-2.283h-6.844Z"/></g>
  <defs>
    <clipPath id="a">
      <path fill="#fff" transform="translate(.5 .5)" d="M0 0h92v17H0z"/>
    </clipPath>
  </defs>
</svg>