<svg width="214" height="93" viewBox="0 0 214 93" fill="none" xmlns="http://www.w3.org/2000/svg">
<g clip-path="url(#clip0_1060_346)">
<path d="M47.1442 70.4797C47.1442 70.4797 48.107 59.7996 48.198 58.7516C48.3455 57.0689 46.9664 54.0144 43.6445 54.0144H33.8392L27.937 54.0187H16.2019C12.88 54.0187 11.2667 56.2339 11.0586 58.3512C10.9371 59.6036 8.66903 85.424 8.52158 86.9108C8.2874 89.3007 9.97004 92.0144 13.0274 92.0144H24.5544H29.3681H40.3096C43.9307 92.0144 45.3358 90.1314 45.6481 87.2303C45.8302 85.4922 46.7279 74.9826 46.7279 74.9826H30.2354L29.5242 83.1066H25.348L27.1477 62.935H31.3196L30.6561 70.4839H47.1485L47.1442 70.4797Z" fill="#008C95"/>
<path d="M72.5965 57.2776C72.0067 58.9391 67.2103 73.7003 67.2103 73.7003L69.344 54.0187H52.8602L49.4082 92.0144H61.8328C64.9553 92.0144 66.0221 90.2763 66.5382 88.8832C67.1583 87.2175 71.7335 74.8036 71.7335 74.8036L70.0509 92.0144H86.5477L89.9433 54.0144C89.9433 54.0144 78.1215 54.0144 76.9983 54.0144C74.1404 54.0144 73.0172 56.0891 72.5965 57.2734" fill="#008C95"/>
<path d="M156.138 54.0188L154.594 71.3446H150.414L151.958 54.0188H135.465C135.465 54.0188 133.882 72.3627 133.718 74.1349C133.518 76.2522 134.737 79.2513 138.392 79.2513H153.892L153.549 83.1067H132.92L132.126 92.0188H164.946C167.166 92.0188 169.317 90.5917 169.608 87.5457C169.795 85.5903 172.635 54.0231 172.635 54.0231H156.143L156.138 54.0188Z" fill="#008C95"/>
<path d="M191.639 72.3584L192.48 62.935H196.613L195.771 72.3584H191.639ZM199.176 54.0187H193.274H176.781L173.398 92.0144H189.891L190.94 80.2566H196.843H195.745H206.96C209.792 80.2566 211.678 78.8379 211.982 75.5747C212.099 74.3137 213.404 59.9104 213.491 58.6366C213.691 55.8292 211.414 54.0144 208.591 54.0144H199.184L199.176 54.0187Z" fill="#008C95"/>
<path d="M112.169 84.1119H107.962L108.799 74.6844H113.01L112.169 84.1119ZM109.502 66.7819L109.844 62.9308H130.5L131.298 54.0144H94.1453L90.7627 92.0101H96.9555C96.9555 92.0101 121.679 92.0101 123.674 92.0101C125.669 92.0101 128.032 90.7918 128.327 87.6137C128.548 85.2323 129.563 73.9346 129.75 71.8855C129.997 69.1462 128.223 66.7819 124.754 66.7819H109.502Z" fill="#008C95"/>
</g>
<path d="M17.2804 42.3816L11.8745 20.6189M28.0747 39.817L25.2191 0.641532M38.2308 39.8132L42.9097 17.2785M48.7441 45.2717L53.4972 31.0162M6.48617 45.2877L1.51014 33.3403" stroke="#008C95" stroke-width="3"/>
<defs>
<clipPath id="clip0_1060_346">
<rect width="205" height="38" fill="white" transform="translate(8.5 54.0144)"/>
</clipPath>
</defs>
</svg>
