<svg width="115" height="114" viewBox="0 0 115 114" fill="none" xmlns="http://www.w3.org/2000/svg">
<path fill-rule="evenodd" clip-rule="evenodd" d="M58.4953 30.4099C61.4318 25.5847 64.2097 19.6904 67.4737 12.6288L71.0824 13.8729C67.0064 31.2022 67.0481 41.1746 71.7176 48.5375C74.0671 52.2423 77.6885 55.4483 82.9283 58.609C88.1781 61.7756 94.9439 64.8338 103.48 68.2932L102.346 71.9444C84.3723 67.9823 73.6419 68.5947 65.8983 73.2956C58.0774 78.0434 52.8257 87.2206 46.5758 101.841L42.9057 100.871C44.6367 85.5922 44.7983 75.6376 40.6852 67.9801C36.6122 60.3969 28.0809 54.6296 11.0235 48.6138L11.9675 44.9108C31.0812 47.9994 41.5565 46.5875 48.866 41.4446C52.5498 38.8528 55.569 35.2184 58.4953 30.4099ZM25.2426 50.2643C34.6594 54.7991 40.6328 59.7742 44.0653 66.1646C47.5652 72.6807 48.2792 80.4327 47.7302 90.0975C52.342 80.8744 57.1908 74.0933 63.9073 70.0159C70.2066 66.1918 77.9197 64.8698 88.1275 65.7587C85.5031 64.4781 83.1113 63.2 80.9466 61.8943C75.4144 58.5572 71.2578 54.9764 68.4775 50.5923C64.5685 44.4286 63.5763 36.9942 64.7297 27.1416C63.7521 29.0049 62.7733 30.7606 61.7729 32.4045C58.6933 37.4648 55.3455 41.577 51.0737 44.5825C44.7569 49.027 36.7204 50.8475 25.2426 50.2643Z" fill="#00313C"/>
</svg>
