<svg width="46" height="46" fill="none" xmlns="http://www.w3.org/2000/svg"><g filter="url(#a)"><rect x=".5" y=".304" width="42" height="42" rx="21" fill="#29BCAD" shape-rendering="crispEdges"/><path d="M21.774 15.32c-1.655.717-4.963 2.202-9.924 4.454-.805.334-1.227.66-1.265.98-.065.54.583.752 1.466 1.041.12.04.245.08.372.124.87.294 2.038.638 2.646.652.55.012 1.166-.224 1.845-.71 4.635-3.26 7.027-4.909 7.178-4.944.106-.025.253-.057.352.035.1.092.09.267.08.314-.065.285-2.61 2.752-3.928 4.028-.41.398-.702.68-.762.744-.133.145-.269.281-.4.413-.807.81-1.412 1.419.034 2.412.695.477 1.25.872 1.805 1.265.606.43 1.21.859 1.992 1.393.2.136.39.277.575.415.705.524 1.338.994 2.121.92.455-.044.924-.49 1.163-1.819.564-3.14 1.672-9.945 1.928-12.749a3.257 3.257 0 0 0-.029-.698c-.022-.138-.07-.335-.242-.48-.204-.173-.518-.21-.66-.207-.64.012-1.621.368-6.347 2.416Z" fill="#fff"/></g><defs><filter id="a" x=".5" y=".304" width="45.36" height="45.36" filterUnits="userSpaceOnUse" color-interpolation-filters="sRGB"><feFlood flood-opacity="0" result="BackgroundImageFix"/><feColorMatrix in="SourceAlpha" values="0 0 0 0 0 0 0 0 0 0 0 0 0 0 0 0 0 0 127 0" result="hardAlpha"/><feOffset dx="3.36" dy="3.36"/><feComposite in2="hardAlpha" operator="out"/><feColorMatrix values="0 0 0 0 0.160784 0 0 0 0 0.737255 0 0 0 0 0.678431 0 0 0 0.5 0"/><feBlend in2="BackgroundImageFix" result="effect1_dropShadow_5162_150"/><feBlend in="SourceGraphic" in2="effect1_dropShadow_5162_150" result="shape"/></filter></defs></svg>