<svg width="435" height="383" viewBox="0 0 435 383" fill="none" xmlns="http://www.w3.org/2000/svg">
<path opacity="0.2" fill-rule="evenodd" clip-rule="evenodd" d="M305.614 0.885617C310.059 2.62905 312.434 7.48324 311.088 12.0699C297.019 59.9971 303.408 93.4805 322.14 113.395C341.077 133.527 375.393 142.813 423.982 135.803C428.713 135.121 433.178 138.173 434.264 142.832C435.35 147.49 432.697 152.21 428.154 153.699C373.505 171.618 348.22 200.117 343.603 231.53C338.874 263.699 355.097 302.906 392.704 343.325C396.023 346.891 395.994 352.429 392.639 355.965C389.283 359.501 383.76 359.814 380.032 356.68C335.408 319.171 293.356 303.23 254.311 306.814C215.301 310.395 177.102 333.668 140.593 379.321C137.887 382.703 133.196 383.747 129.317 381.83C125.438 379.913 123.416 375.551 124.457 371.346C136.786 321.528 131.577 283.716 112.574 257.121C93.5268 230.464 59.1142 212.954 8.38946 207.124C3.67121 206.581 0.140067 202.537 0.233785 197.784C0.327503 193.03 4.01537 189.124 8.75145 188.762C58.9066 184.932 92.5679 168.266 107.674 144.157C122.43 120.609 121.58 86.3699 94.3376 41.9234C91.8813 37.916 92.8312 32.6984 96.5425 29.8124C100.254 26.9264 105.538 27.2962 108.808 30.6707C145.165 68.1895 180.355 83.4218 210.887 79.5876C241.223 75.7779 270.467 52.6744 294 5.36679C296.129 1.08711 301.17 -0.857808 305.614 0.885617ZM129.286 72.7298C139.495 103.745 137.404 131.419 123.284 153.953C110.091 175.009 87.3447 189.954 57.9166 198.722C88.2113 208.532 111.818 224.343 127.565 246.382C145.81 271.916 152.578 304.506 148.323 342.9C180.683 310.366 215.565 291.846 252.639 288.443C282.865 285.668 313.586 293.031 344.494 309.756C328.638 282.202 321.581 254.638 325.37 228.856C329.662 199.659 347.501 174.753 378.413 155.934C349.184 153.46 325.239 143.609 308.719 126.047C291.855 108.118 283.974 83.515 285.169 53.809C264.457 79.4396 240.12 94.5081 213.169 97.8926C185.659 101.347 157.199 92.3905 129.286 72.7298Z" fill="#29BCAD"/>
</svg>
