<svg width="148" height="10" viewBox="0 0 148 10" fill="none" xmlns="http://www.w3.org/2000/svg">
<path d="M3.44564 4.9678C19.4653 4.85207 35.3282 3.52856 51.3146 3.02582C59.0819 2.78155 66.8558 2.74451 74.6276 2.82295C83.1282 2.90875 91.2624 3.57762 99.6583 4.18088C105.719 4.61637 111.884 4.90787 118 4.5766C123.024 4.30446 128.04 3.72174 133.041 3.31962C134.161 3.22957 135.259 3.10629 136.369 2.98553C138.11 2.796 132.824 3.06668 131.066 3.19609C123.072 3.78462 115.186 5.0237 107.341 6.06604C105.203 6.35001 103.064 6.64326 100.89 6.8246C98.4627 7.02715 97.2988 7.01913 101.116 6.81148C112.811 6.1754 124.671 5.33546 136.429 5.55734C139.227 5.61016 142.017 5.62032 144.817 5.60009" stroke="#29BCAD" stroke-width="5" stroke-linecap="round"/>
</svg>
