<svg width="343" height="131" viewBox="0 0 343 131" fill="none" xmlns="http://www.w3.org/2000/svg">
<path opacity="0.1" fill-rule="evenodd" clip-rule="evenodd" d="M142.086 123.492C131.425 122.295 120.333 120.799 108.81 118.98L109.836 112.455C137.927 116.889 163.386 119.378 186.23 120.308C207.871 118.003 228.673 114.685 246.786 110.652C276.602 104.013 297.491 94.1921 309.313 83.3649C315.199 77.974 318.705 72.4585 320.099 67.0882C321.416 62.0131 320.911 56.8301 318.405 51.6142C305.255 42.6659 285.157 35.3228 258.547 30.7164C231.521 26.0379 197.996 24.2195 158.663 26.2961C106.291 29.0611 63.065 39.6288 36.2911 53.6377C22.857 60.6669 13.9677 68.3535 9.88986 75.9739C7.88083 79.7284 7.0549 83.4317 7.36282 87.0821C7.67136 90.7398 9.13825 94.575 12.0802 98.5499C16.4949 104.515 24.6921 109.544 36.2058 113.505C47.6427 117.439 61.9448 120.18 78.0556 121.854C97.5795 123.882 119.593 124.326 142.086 123.492ZM306.8 37.7235C294.113 32.0208 278.302 27.4322 259.67 24.2068C232.055 19.4264 198.023 17.6028 158.316 19.6992C105.417 22.492 61.1558 33.1751 33.2391 47.782C19.3279 55.0608 9.07114 63.5234 4.07907 72.8524C1.55317 77.5727 0.363206 82.5441 0.79296 87.6385C1.22208 92.7256 3.24652 97.7051 6.78416 102.485C12.3698 110.032 22.0628 115.624 34.0649 119.753C46.1439 123.908 60.9834 126.721 77.3757 128.424C110.101 131.824 149.468 130.84 186.446 126.929C241.824 129.134 282.435 122.29 308.299 111.455C321.233 106.036 330.709 99.5225 336.419 92.4208C342.194 85.2391 344.203 77.2937 341.658 69.5811C338.884 61.1713 332.622 53.6264 323.516 47.129C318.764 38.4095 309.75 30.2933 296.791 23.1528C276.876 12.1795 243.278 4.50763 204.39 1.69262C165.396 -1.13002 120.674 0.901395 78.2888 9.63108L79.6164 16.1019C121.349 7.50664 165.459 5.49787 203.915 8.28152C242.475 11.0728 274.944 18.6537 293.614 28.9413C298.788 31.792 303.168 34.7359 306.8 37.7235ZM327.264 58.9192C331.273 63.0201 333.961 67.2986 335.398 71.6545C337.086 76.7702 335.994 82.4201 331.285 88.2763C326.511 94.2126 318.12 100.18 305.755 105.36C289.068 112.351 265.56 117.734 235.114 119.808C239.607 118.947 243.982 118.044 248.216 117.101C278.547 110.348 300.721 100.183 313.761 88.2409C320.306 82.2469 324.681 75.6814 326.48 68.7506C327.328 65.4824 327.587 62.1921 327.264 58.9192Z" fill="#00313C"/>
</svg>
