<svg width="90" height="77" viewBox="0 0 90 77" fill="none" xmlns="http://www.w3.org/2000/svg">
<path fill-rule="evenodd" clip-rule="evenodd" d="M68.7926 70.8129C61.2712 71.4664 53.3906 64.9234 53.3614 56.7177C53.3457 52.3148 54.5816 48.8979 56.6658 46.4647C58.7468 44.0351 61.8667 42.36 66.042 41.7887C66.8254 41.6815 67.5167 41.2217 67.9181 40.5409C70.5023 36.1579 72.3757 26.4852 67.4275 14.1393C68.9252 15.8411 70.4087 17.7239 71.8451 19.7532C76.5074 26.3399 80.4871 34.208 82.7276 41.8049C84.9892 49.4734 85.3696 56.4852 83.3443 61.6081C81.431 66.4478 77.1776 70.0843 68.7926 70.8129ZM48.1922 56.7361C48.2328 68.129 58.8728 76.8604 69.2404 75.9595C79.2259 75.0919 85.3976 70.4732 88.1519 63.5064C90.7941 56.823 90.0845 48.4771 87.6859 40.3444C85.2663 32.1401 81.0157 23.7635 76.0651 16.7697C71.1509 9.82716 65.3583 3.98099 59.7211 1.13511C58.6606 0.599739 57.3715 0.855873 56.5965 1.75594C55.8216 2.656 55.7605 3.96812 56.4484 4.93624C67.3968 20.344 65.9472 32.2688 63.9743 36.8947C59.37 37.7798 55.5082 39.872 52.7388 43.1053C49.7027 46.6499 48.173 51.3397 48.1922 56.7361ZM35.2314 64.1675C32.4872 68.4659 27.6052 71.3142 19.1486 70.7837C11.6125 70.3109 4.78535 62.666 5.9702 54.5458C6.60587 50.1893 8.33337 46.9949 10.7534 44.8995C13.1697 42.8072 16.5021 41.6148 20.7156 41.671C21.507 41.6815 22.2595 41.3291 22.7579 40.7147C24.6666 38.3614 27.3495 34.2401 28.2102 28.0942C28.6658 24.8408 28.6007 21.0929 27.697 16.8207C28.9238 18.71 30.1004 20.7753 31.1986 22.9759C34.6658 29.9238 37.2148 37.9493 38.0913 45.4445C38.9755 53.006 38.1173 59.6471 35.2314 64.1675ZM35.8245 20.6703C32.1484 13.3041 27.3934 6.83247 22.2453 3.18354C21.2759 2.4965 19.9628 2.55855 19.0626 3.33392C18.1625 4.10931 17.9074 5.39819 18.4444 6.45765C23.0691 15.5822 23.7818 22.4446 23.0909 27.3781C22.5029 31.577 20.8717 34.5677 19.4623 36.5214C14.7521 36.7011 10.6005 38.1965 7.36845 40.995C3.84076 44.0496 1.63419 48.4607 0.855072 53.8003C-0.789656 65.0723 8.43963 75.2881 18.8247 75.9396C28.7713 76.5635 35.6406 73.1311 39.5891 66.9462C43.396 60.9834 44.1721 52.9388 43.2256 44.8448C42.2713 36.6845 39.5245 28.0848 35.8245 20.6703Z" fill="#29BCAD"/>
</svg>
