<svg width="112" height="103" viewBox="0 0 112 103" fill="none" xmlns="http://www.w3.org/2000/svg">
<path fill-rule="evenodd" clip-rule="evenodd" d="M102.436 70.2359L102.307 71.0088C101.448 76.1433 98.6821 81.1258 94.9907 85.3335C91.7623 89.0134 87.7572 92.1816 83.5046 94.4133C79.7344 96.3918 75.7009 97.6697 71.7887 97.8601L70.9352 97.9016L22.7512 52.1993L14.7755 0.035452L63.1022 10.3448L102.436 70.2359ZM98.219 71.1013L62.9727 17.4343C61.7236 22.2716 59.383 27.1324 56.3292 31.6235L93.5464 80.7793C95.8742 77.6988 97.5246 74.3759 98.219 71.1013ZM90.8854 83.8913L53.8571 34.9849C50.7758 38.8695 47.1471 42.4192 43.2025 45.3422L83.0059 90.1166C85.8519 88.4501 88.5534 86.317 90.8854 83.8913ZM79.3088 91.9782L39.8691 47.613C36.3581 49.7999 32.6316 51.4877 28.8384 52.4599L72.428 93.8045C74.648 93.5919 76.9787 92.9629 79.3088 91.9782ZM26.2986 48.9347C30.5974 48.0944 34.9689 46.1297 39.1049 43.3421C44.0867 39.9844 48.6481 35.485 52.2324 30.5023C56.1283 25.0866 58.7975 19.2034 59.6713 13.7029L40.755 9.66756C40.4604 10.3382 40.0664 11.1819 39.5715 12.1309C38.3585 14.4571 36.5054 17.482 33.9754 20.1366C31.4516 22.7845 28.3842 24.9268 25.9964 26.3907C24.8534 27.0914 23.8477 27.6477 23.1039 28.0402L26.2986 48.9347ZM22.4605 23.8327C22.9023 23.5823 23.3887 23.2975 23.9058 22.9805C26.1504 21.6045 28.893 19.6713 31.0798 17.3769C33.2603 15.0891 34.9113 12.4168 36.0248 10.2815C36.3022 9.74951 36.5441 9.25502 36.7506 8.81331L19.6049 5.15568L22.4605 23.8327Z" fill="#00313C"/>
</svg>
