<svg width="46" height="46" viewBox="0 0 46 46" fill="none" xmlns="http://www.w3.org/2000/svg">
<g filter="url(#filter0_d_5162_1538)">
<rect x="0.5" y="0.303711" width="42" height="42" rx="21" fill="#29BCAD" shape-rendering="crispEdges"/>
<g filter="url(#filter1_d_5162_1538)">
<path d="M38.3155 20.1165C38.3155 28.8877 31.205 35.9982 22.4338 35.9982C13.6625 35.9982 6.55203 28.8877 6.55203 20.1165C6.55203 11.3452 13.6625 4.23475 22.4338 4.23475C31.205 4.23475 38.3155 11.3452 38.3155 20.1165Z" fill="white"/>
<path d="M21.5 0.303711C9.92078 0.303711 0.5 9.72449 0.5 21.3037C0.5 32.8829 9.92078 42.3037 21.5 42.3037C33.0801 42.3037 42.5 32.8829 42.5 21.3037C42.5 9.72449 33.0801 0.303711 21.5 0.303711ZM30.6058 25.4444C32.6483 27.2577 33.0728 27.905 33.1422 28.0155C33.9886 29.3577 32.2036 29.5211 32.2036 29.5211H28.4419C28.4419 29.5211 27.5261 29.5311 26.7436 29.0125C25.4681 28.1771 24.1323 26.5574 23.1937 26.8386C22.4057 27.0741 22.413 28.1388 22.413 29.0491C22.413 29.375 22.1327 29.5211 21.5 29.5211C20.8673 29.5211 20.6043 29.5211 20.324 29.5211C18.2633 29.5211 16.0272 28.8272 13.7967 26.4962C10.6412 23.201 7.87374 16.5632 7.87374 16.5632C7.87374 16.5632 7.7103 16.229 7.88835 16.0254C8.09013 15.7971 8.63887 15.8264 8.63887 15.8264L12.2865 15.8255C12.2865 15.8255 12.6298 15.8903 12.8763 16.0638C13.0799 16.2062 13.1931 16.4783 13.1931 16.4783C13.1931 16.4783 13.8058 18.5016 14.5864 19.7917C16.1112 22.3099 16.8207 22.3738 17.3383 22.1026C18.0943 21.71 17.8478 19.033 17.8478 19.033C17.8478 19.033 17.8816 17.8834 17.4872 17.3712C17.1831 16.975 16.6015 16.7641 16.3477 16.7312C16.1423 16.7047 16.4856 16.345 16.9229 16.1395C17.5073 15.8793 18.3025 15.8127 19.6739 15.8255C20.7413 15.8355 21.049 15.8994 21.4653 15.9953C22.7244 16.2856 22.413 17.0517 22.413 19.7415C22.413 20.6034 22.2943 21.815 22.9444 22.2168C23.2247 22.3902 24.1853 22.6021 25.8945 19.8264C26.7062 18.5098 27.3517 16.3258 27.3517 16.3258C27.3517 16.3258 27.485 16.0857 27.6923 15.967C27.9041 15.8455 27.8977 15.8483 28.188 15.8483C28.4784 15.8483 31.3901 15.8255 32.0292 15.8255C32.6674 15.8255 33.2664 15.8181 33.3696 16.1925C33.5175 16.7303 32.8984 18.5728 31.3298 20.5724C28.7523 23.8538 28.4665 23.5471 30.6058 25.4444Z" fill="#29BCAD"/>
</g>
</g>
<defs>
<filter id="filter0_d_5162_1538" x="0.5" y="0.303711" width="45.36" height="45.36" filterUnits="userSpaceOnUse" color-interpolation-filters="sRGB">
  <feFlood flood-opacity="0" result="BackgroundImageFix"/>
  <feColorMatrix in="SourceAlpha" type="matrix" values="0 0 0 0 0 0 0 0 0 0 0 0 0 0 0 0 0 0 127 0" result="hardAlpha"/>
  <feOffset dx="3.36" dy="3.36"/>
  <feComposite in2="hardAlpha" operator="out"/>
  <feColorMatrix type="matrix" values="0 0 0 0 0.160784 0 0 0 0 0.737255 0 0 0 0 0.678431 0 0 0 0.5 0"/>
  <feBlend mode="normal" in2="BackgroundImageFix" result="effect1_dropShadow_5162_1538"/>
  <feBlend mode="normal" in="SourceGraphic" in2="effect1_dropShadow_5162_1538" result="shape"/>
</filter>
</defs>
</svg>
