<svg width="242" height="28" viewBox="0 0 242 28" fill="none" xmlns="http://www.w3.org/2000/svg">
<path fill-rule="evenodd" clip-rule="evenodd" d="M225.105 19.6787C224.834 19.5653 224.557 19.4723 224.335 19.4018C224.167 19.3485 223.997 19.2944 223.825 19.2398C222.219 18.729 220.459 18.169 218.652 17.7255C217.783 17.5122 216.897 17.2852 215.998 17.0483C218.581 17.1851 221.167 17.2598 223.755 17.2607C228.272 17.2622 232.775 17.4303 237.307 17.7203C239.7 17.8735 241.769 16.1227 241.927 13.8097C242.086 11.4967 240.274 9.49745 237.881 9.34425C233.192 9.04413 228.495 8.86785 223.758 8.86628C207.796 8.861 191.93 5.89865 175.73 2.87381C172.727 2.31304 169.712 1.75013 166.683 1.20351C166.624 1.19296 166.567 1.18254 166.51 1.17222C165.496 0.917666 164.603 0.719537 163.916 0.5814C163.562 0.510325 163.246 0.451624 162.985 0.408556C162.981 0.407879 162.975 0.406855 162.967 0.405527C162.85 0.385484 162.331 0.29648 161.843 0.30066C161.742 0.301523 161.48 0.305843 161.153 0.358484C160.991 0.384548 160.688 0.441663 160.327 0.573668C160.03 0.682131 159.272 0.988833 158.597 1.73184C157.746 2.66853 157.306 4.00866 157.615 5.38985C157.86 6.48581 158.482 7.16499 158.733 7.41671C159.233 7.91909 159.751 8.17717 159.857 8.23001L159.866 8.23466C160.172 8.38833 160.438 8.47596 160.505 8.49777L160.51 8.49947C160.62 8.53568 160.718 8.56388 160.786 8.58298C161.041 8.6536 161.36 8.72716 161.693 8.79911C162.324 8.93542 163.273 9.12374 164.598 9.36619C166.171 9.7719 167.733 10.2746 169.331 10.8381C166.937 11.0549 164.565 11.3255 162.222 11.6238C156.172 12.3942 149.019 10.9365 140.987 8.95799C140.032 8.72269 139.062 8.47929 138.081 8.23316C131.209 6.5083 123.802 4.64938 117.109 4.5042C112.238 4.39854 106.339 4.58202 100.331 4.76886C98.2502 4.83357 96.1565 4.89869 94.0881 4.95233C85.8773 5.16528 78.0116 5.20122 72.0178 4.46043C58.6999 2.81444 48.3646 2.39468 38.0992 2.17252C36.0066 2.12724 33.9227 2.09016 31.8204 2.05275C23.6046 1.90657 15.1073 1.75538 4.70654 1.08965C2.31319 0.936458 0.244496 2.68732 0.0859825 5.0003C-0.0725315 7.31329 1.73916 9.31252 4.13251 9.46571C14.7597 10.1459 23.5032 10.3012 31.7398 10.4475C33.8197 10.4844 35.8673 10.5207 37.9047 10.5648C48.0156 10.7837 58.0175 11.1929 70.916 12.787C77.6598 13.6205 86.1515 13.5556 94.3212 13.3437C96.5273 13.2865 98.7083 13.2187 100.839 13.1525C106.764 12.9685 112.301 12.7964 116.914 12.8965C122.516 13.018 128.829 14.595 135.852 16.3491C136.835 16.5945 137.831 16.8435 138.842 17.0924C146.69 19.0256 155.41 20.9581 163.357 19.9463C173.338 18.6754 183.026 18.0485 192.33 19.7223C192.443 19.7426 192.555 19.7631 192.668 19.7838C199.424 22.3057 206.327 24.6315 213.297 26.2237C214.861 26.581 217.844 27.1353 220.068 27.4871C221.111 27.6522 222.248 27.8159 222.979 27.8545L222.983 27.8547C223.128 27.8624 223.563 27.8855 224.049 27.8224L224.063 27.8207C224.205 27.8037 225.104 27.6963 225.997 27.0999C226.561 26.7233 227.482 25.9038 227.788 24.501C228.095 23.0927 227.592 21.9779 227.224 21.4047C226.644 20.5033 225.852 20.0564 225.727 19.9858C225.722 19.9829 225.718 19.9806 225.715 19.979C225.461 19.8318 225.234 19.7324 225.105 19.6787ZM161.384 8.66255C161.386 8.66312 161.407 8.66625 161.442 8.67036C161.401 8.66404 161.383 8.66198 161.384 8.66255Z" fill="#29BCAD"/>
</svg>
