<svg width="94" height="131" viewBox="0 0 94 131" fill="none" xmlns="http://www.w3.org/2000/svg">
<path fill-rule="evenodd" clip-rule="evenodd" d="M0.0783396 28.7229L0.555539 27.3606C2.70429 21.2263 7.1505 15.7566 12.484 11.4629C17.1556 7.70192 22.66 4.71742 28.2818 2.90779C33.2626 1.30448 38.4719 0.58062 43.3551 1.17236L44.9214 1.36218L93.1586 65.4068L92.0209 130.466L34.8369 107.77L0.0783396 28.7229ZM8.04587 28.4846L37.4641 95.3868C39.7907 90.9941 42.9002 86.7889 46.5046 82.9651L13.7442 20.2579C11.2364 22.8312 9.27601 25.6279 8.04587 28.4846ZM19.5355 15.3893L52.0787 77.6808C55.8923 74.4446 60.0902 71.5767 64.4837 69.2479L27.8693 10.8829C24.975 12.0524 22.1438 13.5823 19.5355 15.3893ZM35.2434 8.74137L71.2615 66.1558C74.8759 64.7707 78.5893 63.7677 82.2997 63.2588L40.9422 8.34841C39.138 8.26399 37.2222 8.39851 35.2434 8.74137ZM85.676 70.3047C81.043 70.6116 76.1491 71.9391 71.3037 74.1072C64.9001 76.9725 58.7403 81.2368 53.6123 86.2527C48.3854 91.3655 44.3748 97.1146 42.1972 102.771L61.5531 110.453C61.941 109.896 62.3904 109.276 62.8983 108.612C64.8405 106.074 67.7205 102.801 71.3728 100.101C75.0114 97.4108 79.1775 95.4684 82.3399 94.2133C83.4401 93.7767 84.4383 93.4156 85.2768 93.1292L85.676 70.3047ZM85.1388 101.023C85.1195 101.03 85.1002 101.038 85.0808 101.046C82.2067 102.186 78.6982 103.851 75.7846 106.005C72.8848 108.148 70.4838 110.846 68.7831 113.068C68.7327 113.134 68.6831 113.199 68.6341 113.264L84.8124 119.685L85.1388 101.023Z" fill="#E04E3A"/>
</svg>
