<svg width="161" height="159" viewBox="0 0 161 159" fill="none" xmlns="http://www.w3.org/2000/svg">
<path fill-rule="evenodd" clip-rule="evenodd" d="M27.1512 79.4822C20.2912 77.0845 14.3221 73.6997 10.2187 70.2443L16.6217 62.6611C19.8408 65.3719 24.931 68.2562 30.9104 70.2845C35.4704 61.1824 41.9809 53.4602 48.9909 48.7018C59.2813 41.7166 70.3551 42.1498 76.681 48.5642C79.8033 51.7301 81.3898 56.1169 80.7814 60.8021C80.1786 65.4451 77.5018 69.8951 73.0459 73.6473C62.5016 82.5263 49.5049 84.0098 38.1187 82.2444C37.6679 82.1745 37.2186 82.0994 36.7709 82.0193C36.2223 83.6769 35.7539 85.369 35.3775 87.0849C32.5856 99.8111 34.9385 113.247 46.5744 123.529C58.986 134.496 80.4981 136.796 97.7858 127.002C112.266 118.797 124.314 101.657 124.008 72.6623L115.258 86.7582L106.814 81.53L126.198 50.3029L157.549 69.897L152.28 78.3057L133.73 66.7116C135.829 102.009 121.988 124.696 102.69 135.63C82.0761 147.309 55.8872 145.003 39.9923 130.958C25.0938 117.793 22.2866 100.398 25.6734 84.9597C26.079 83.1113 26.5745 81.2822 27.1512 79.4822ZM40.9048 72.6205C50.0486 73.7894 59.3038 72.241 66.6408 66.0629C69.6706 63.5116 70.7174 61.1592 70.9297 59.5242C71.1365 57.9314 70.6297 56.5644 69.6038 55.5242C67.6335 53.5263 62.1919 51.7374 54.577 56.9064C49.584 60.2957 44.653 65.8752 40.9048 72.6205Z" fill="#F15663"/>
</svg>
