<svg width="291" height="31" viewBox="0 0 291 31" fill="none" xmlns="http://www.w3.org/2000/svg">
<path fill-rule="evenodd" clip-rule="evenodd" d="M146.31 12.4575C130.955 12.3399 115.642 12.6266 100.381 13.6333C87.6392 14.4739 74.9578 15.7823 62.1833 17.1003C59.1716 17.411 56.1547 17.7222 53.1306 18.028C37.3286 19.6259 21.3853 21.0678 5.30461 21.4378C2.84272 21.4944 0.801028 19.566 0.744376 17.1306C0.687724 14.6952 2.63756 12.6749 5.09946 12.6183C20.8081 12.2568 36.4579 10.8463 52.226 9.25188C55.2087 8.95027 58.1976 8.64184 61.1921 8.33285C73.9787 7.0134 86.8654 5.68363 99.79 4.83101C115.33 3.80585 130.873 3.51705 146.381 3.63585C161.468 3.75143 176.021 5.48269 190.571 7.21375C192.595 7.45451 194.619 7.69527 196.644 7.93169C208.609 9.32849 220.467 10.1802 232.078 8.94572C232.277 8.92452 232.477 8.9029 232.676 8.88088C240.942 6.86678 249.331 5.03631 257.767 3.84751C259.606 3.58827 263.174 3.19325 265.84 2.95114C267.123 2.8346 268.388 2.73513 269.139 2.7239C269.295 2.72158 269.658 2.7171 270.044 2.76289L270.049 2.76337C270.119 2.77019 270.879 2.84429 271.677 3.26455C272.025 3.44824 273.502 4.27183 273.941 6.19808C274.43 8.34418 273.217 9.8108 272.793 10.2446C272.315 10.7348 271.836 10.9961 271.67 11.0838C271.448 11.202 271.256 11.2802 271.142 11.3243C270.911 11.4132 270.706 11.4723 270.586 11.5054C270.33 11.5757 270.054 11.6362 269.804 11.6871C269.599 11.7289 269.392 11.7712 269.184 11.8137C268.921 11.8675 268.656 11.9217 268.389 11.976C268.694 11.9818 268.998 11.9883 269.303 11.9953C274.782 12.1224 280.249 12.1021 285.748 11.9755C288.21 11.9189 290.252 13.8473 290.309 16.2827C290.365 18.7182 288.415 20.7384 285.954 20.7951C280.339 20.9242 274.732 20.9456 269.092 20.8148C249.701 20.365 230.231 22.5309 210.585 24.7164C206.952 25.1205 203.314 25.5253 199.669 25.9143C199.574 25.9245 199.48 25.9345 199.388 25.9444C198.159 26.1384 197.081 26.2852 196.265 26.3843C195.852 26.4344 195.494 26.4738 195.208 26.5012L195.183 26.5036C195.016 26.5198 194.575 26.5625 194.195 26.5512C194.12 26.549 193.924 26.5421 193.679 26.5075C193.561 26.4908 193.324 26.453 193.034 26.3676L193.029 26.3662C192.848 26.3128 192.091 26.0901 191.354 25.4464C190.931 25.0778 190.356 24.4313 190.048 23.4541C189.719 22.4115 189.821 21.3967 190.132 20.5805C190.633 19.2677 191.601 18.6201 191.793 18.492L191.803 18.4852C192.325 18.1346 192.815 17.9759 192.887 17.9525L192.894 17.9503C193.288 17.8193 193.675 17.7583 193.679 17.7575C193.929 17.7136 194.269 17.6647 194.666 17.6122C195.414 17.5133 196.565 17.3757 198.198 17.1989C198.453 17.1577 198.709 17.1151 198.965 17.0711C197.838 16.95 196.715 16.8234 195.597 16.6928C193.546 16.4534 191.509 16.2113 189.483 15.9705C174.887 14.2359 160.862 12.569 146.31 12.4575ZM195.239 26.443C195.244 26.4421 195.25 26.4411 195.257 26.4399C195.194 26.4528 195.179 26.4535 195.239 26.443ZM269.314 11.5447C269.313 11.5449 269.303 11.545 269.285 11.5446C269.305 11.5444 269.314 11.5446 269.314 11.5447Z" fill="#29BCAD"/>
</svg>
